<?xml version="1.0" standalone="no"?> 
<!DOCTYPE svg PUBLIC "-//W3C//DTD SVG 1.1//EN" "http://www.w3.org/Graphics/SVG/1.1/DTD/svg11.dtd" >
<svg xmlns="http://www.w3.org/2000/svg">
<defs>
  <font id="django-admin-iconfont" horiz-adv-x="1792">
    <font-face font-family="django-admin-iconfont"
      units-per-em="1792" ascent="1792"
      descent="0" />
    <missing-glyph horiz-adv-x="0" />
    <glyph glyph-name="archive"
      unicode="&#xE001;"
      horiz-adv-x="1792" d=" M1088 960Q1088 986 1069 1005T1024 1024H768Q742 1024 723 1005T704 960T723 915T768 896H1024Q1050 896 1069 915T1088 960zM1664 1152V192Q1664 166 1645 147T1600 128H192Q166 128 147 147T128 192V1152Q128 1178 147 1197T192 1216H1600Q1626 1216 1645 1197T1664 1152zM1728 1600V1344Q1728 1318 1709 1299T1664 1280H128Q102 1280 83 1299T64 1344V1600Q64 1626 83 1645T128 1664H1664Q1690 1664 1709 1645T1728 1600z" />
    <glyph glyph-name="arrow-left"
      unicode="&#xE002;"
      horiz-adv-x="1792" d=" M1664 896V768Q1664 715 1631.5 677.5T1547 640H843L1136 346Q1174 310 1174 256T1136 166L1061 90Q1024 53 971 53Q919 53 880 90L229 742Q192 779 192 832Q192 884 229 923L880 1573Q918 1611 971 1611Q1023 1611 1061 1573L1136 1499Q1174 1461 1174 1408T1136 1317L843 1024H1547Q1599 1024 1631.5 986.5T1664 896z" />
    <glyph glyph-name="arrow-right"
      unicode="&#xE003;"
      horiz-adv-x="1792" d=" M1363 915L621 173Q602 154 576 154T531 173L365 339Q346 358 346 384T365 429L896 960L365 1491Q346 1510 346 1536T365 1581L531 1747Q550 1766 576 1766T621 1747L1363 1005Q1382 986 1382 960T1363 915z" />
    <glyph glyph-name="calendar"
      unicode="&#xE004;"
      horiz-adv-x="1792" d=" M192 128H480V416H192V128zM544 128H864V416H544V128zM192 480H480V800H192V480zM544 480H864V800H544V480zM192 864H480V1152H192V864zM928 128H1248V416H928V128zM544 864H864V1152H544V864zM1312 128H1600V416H1312V128zM928 480H1248V800H928V480zM576 1344V1632Q576 1645 566.5 1654.5T544 1664H480Q467 1664 457.5 1654.5T448 1632V1344Q448 1331 457.5 1321.5T480 1312H544Q557 1312 566.5 1321.5T576 1344zM1312 480H1600V800H1312V480zM928 864H1248V1152H928V864zM1312 864H1600V1152H1312V864zM1344 1344V1632Q1344 1645 1334.5 1654.5T1312 1664H1248Q1235 1664 1225.5 1654.5T1216 1632V1344Q1216 1331 1225.5 1321.5T1248 1312H1312Q1325 1312 1334.5 1321.5T1344 1344zM1728 1408V128Q1728 76 1690 38T1600 0H192Q140 0 102 38T64 128V1408Q64 1460 102 1498T192 1536H320V1632Q320 1698 367 1745T480 1792H544Q610 1792 657 1745T704 1632V1536H1088V1632Q1088 1698 1135 1745T1248 1792H1312Q1378 1792 1425 1745T1472 1632V1536H1600Q1652 1536 1690 1498T1728 1408z" />
    <glyph glyph-name="camera"
      unicode="&#xE005;"
      horiz-adv-x="1792" d=" M896 1120Q1015 1120 1099.5 1035.5T1184 832T1099.5 628.5T896 544T692.5 628.5T608 832T692.5 1035.5T896 1120zM1600 1536Q1706 1536 1781 1461T1856 1280V384Q1856 278 1781 203T1600 128H192Q86 128 11 203T-64 384V1280Q-64 1386 11 1461T192 1536H416L467 1672Q486 1721 536.5 1756.5T640 1792H1152Q1205 1792 1255.5 1756.5T1325 1672L1376 1536H1600zM896 384Q1081 384 1212.5 515.5T1344 832T1212.5 1148.5T896 1280T579.5 1148.5T448 832T579.5 515.5T896 384z" />
    <glyph glyph-name="certificate"
      unicode="&#xE006;"
      horiz-adv-x="1792" d=" M1504 896L1642 761Q1672 733 1662 691Q1650 650 1610 640L1422 592L1475 406Q1487 365 1456 336Q1427 305 1386 317L1200 370L1152 182Q1142 142 1101 130Q1089 128 1082 128Q1051 128 1031 150L896 288L761 150Q733 120 691 130Q650 141 640 182L592 370L406 317Q365 305 336 336Q305 365 317 406L370 592L182 640Q142 650 130 691Q120 733 150 761L288 896L150 1031Q120 1059 130 1101Q142 1142 182 1152L370 1200L317 1386Q305 1427 336 1456Q365 1487 406 1475L592 1422L640 1610Q650 1651 691 1661Q732 1673 761 1642L896 1503L1031 1642Q1060 1672 1101 1661Q1142 1651 1152 1610L1200 1422L1386 1475Q1427 1487 1456 1456Q1487 1427 1475 1386L1422 1200L1610 1152Q1650 1142 1662 1101Q1672 1059 1642 1031z" />
    <glyph glyph-name="check-circle"
      unicode="&#xE007;"
      horiz-adv-x="1792" d=" M1412 1058Q1412 1086 1394 1104L1303 1194Q1284 1213 1258 1213T1213 1194L805 787L579 1013Q560 1032 534 1032T489 1013L398 923Q380 905 380 877Q380 850 398 832L760 470Q779 451 805 451Q832 451 851 470L1394 1013Q1412 1031 1412 1058zM1664 896Q1664 687 1561 510.5T1281.5 231T896 128T510.5 231T231 510.5T128 896T231 1281.5T510.5 1561T896 1664T1281.5 1561T1561 1281.5T1664 896z" />
    <glyph glyph-name="check"
      unicode="&#xE008;"
      horiz-adv-x="1792" d=" M1671 1226Q1671 1186 1643 1158L919 434L783 298Q755 270 715 270T647 298L511 434L149 796Q121 824 121 864T149 932L285 1068Q313 1096 353 1096T421 1068L715 773L1371 1430Q1399 1458 1439 1458T1507 1430L1643 1294Q1671 1266 1671 1226z" />
    <glyph glyph-name="chevron-circle-down"
      unicode="&#xE009;"
      horiz-adv-x="1792" d=" M941 493L1395 947Q1414 966 1414 992T1395 1037L1293 1139Q1274 1158 1248 1158T1203 1139L896 832L589 1139Q570 1158 544 1158T499 1139L397 1037Q378 1018 378 992T397 947L851 493Q870 474 896 474T941 493zM1664 896Q1664 687 1561 510.5T1281.5 231T896 128T510.5 231T231 510.5T128 896T231 1281.5T510.5 1561T896 1664T1281.5 1561T1561 1281.5T1664 896z" />
    <glyph glyph-name="chevron-circle-left"
      unicode="&#xE00A;"
      horiz-adv-x="1792" d=" M1037 397L1139 499Q1158 518 1158 544T1139 589L832 896L1139 1203Q1158 1222 1158 1248T1139 1293L1037 1395Q1018 1414 992 1414T947 1395L493 941Q474 922 474 896T493 851L947 397Q966 378 992 378T1037 397zM1664 896Q1664 687 1561 510.5T1281.5 231T896 128T510.5 231T231 510.5T128 896T231 1281.5T510.5 1561T896 1664T1281.5 1561T1561 1281.5T1664 896z" />
    <glyph glyph-name="chevron-circle-right"
      unicode="&#xE00B;"
      horiz-adv-x="1792" d=" M845 397L1299 851Q1318 870 1318 896T1299 941L845 1395Q826 1414 800 1414T755 1395L653 1293Q634 1274 634 1248T653 1203L960 896L653 589Q634 570 634 544T653 499L755 397Q774 378 800 378T845 397zM1664 896Q1664 687 1561 510.5T1281.5 231T896 128T510.5 231T231 510.5T128 896T231 1281.5T510.5 1561T896 1664T1281.5 1561T1561 1281.5T1664 896z" />
    <glyph glyph-name="chevron-circle-up"
      unicode="&#xE00C;"
      horiz-adv-x="1792" d=" M1293 653L1395 755Q1414 774 1414 800T1395 845L941 1299Q922 1318 896 1318T851 1299L397 845Q378 826 378 800T397 755L499 653Q518 634 544 634T589 653L896 960L1203 653Q1222 634 1248 634T1293 653zM1664 896Q1664 687 1561 510.5T1281.5 231T896 128T510.5 231T231 510.5T128 896T231 1281.5T510.5 1561T896 1664T1281.5 1561T1561 1281.5T1664 896z" />
    <glyph glyph-name="chevron-left"
      unicode="&#xE00D;"
      horiz-adv-x="1792" d=" M1427 1491L896 960L1427 429Q1446 410 1446 384T1427 339L1261 173Q1242 154 1216 154T1171 173L429 915Q410 934 410 960T429 1005L1171 1747Q1190 1766 1216 1766T1261 1747L1427 1581Q1446 1562 1446 1536T1427 1491z" />
    <glyph glyph-name="clipboard"
      unicode="&#xE00E;"
      horiz-adv-x="1792" d=" M768 128H1664V768H1248Q1208 768 1180 796T1152 864V1280H768V128zM1024 1568V1632Q1024 1645 1014.5 1654.5T992 1664H288Q275 1664 265.5 1654.5T256 1632V1568Q256 1555 265.5 1545.5T288 1536H992Q1005 1536 1014.5 1545.5T1024 1568zM1280 896H1579L1280 1195V896zM1792 768V96Q1792 56 1764 28T1696 0H736Q696 0 668 28T640 96V256H96Q56 256 28 284T0 352V1696Q0 1736 28 1764T96 1792H1184Q1224 1792 1252 1764T1280 1696V1368Q1301 1355 1316 1340L1724 932Q1752 904 1772 856T1792 768z" />
    <glyph glyph-name="clock"
      unicode="&#xE00F;"
      horiz-adv-x="1792" d=" M1024 1248V800Q1024 786 1015 777T992 768H672Q658 768 649 777T640 800V864Q640 878 649 887T672 896H896V1248Q896 1262 905 1271T928 1280H992Q1006 1280 1015 1271T1024 1248zM1440 896Q1440 1044 1367 1169T1169 1367T896 1440T623 1367T425 1169T352 896T425 623T623 425T896 352T1169 425T1367 623T1440 896zM1664 896Q1664 687 1561 510.5T1281.5 231T896 128T510.5 231T231 510.5T128 896T231 1281.5T510.5 1561T896 1664T1281.5 1561T1561 1281.5T1664 896z" />
    <glyph glyph-name="cloud-download"
      unicode="&#xE010;"
      horiz-adv-x="1792" d=" M1216 864Q1216 878 1207 887T1184 896H960V1248Q960 1261 950.5 1270.5T928 1280H736Q723 1280 713.5 1270.5T704 1248V896H480Q467 896 457.5 886.5T448 864Q448 850 457 841L809 489Q818 480 832 480T855 489L1206 840Q1216 852 1216 864zM1856 640Q1856 481 1743.5 368.5T1472 256H384Q199 256 67.5 387.5T-64 704Q-64 834 6 944T194 1109Q192 1139 192 1152Q192 1364 342 1514T704 1664Q860 1664 989.5 1577T1178 1346Q1249 1408 1344 1408Q1450 1408 1525 1333T1600 1152Q1600 1076 1559 1014Q1689 983 1772.5 878.5T1856 640z" />
    <glyph glyph-name="cloud-upload"
      unicode="&#xE011;"
      horiz-adv-x="1792" d=" M1216 928Q1216 942 1207 951L855 1303Q846 1312 832 1312T809 1303L458 952Q448 940 448 928Q448 914 457 905T480 896H704V544Q704 531 713.5 521.5T736 512H928Q941 512 950.5 521.5T960 544V896H1184Q1197 896 1206.5 905.5T1216 928zM1856 640Q1856 481 1743.5 368.5T1472 256H384Q199 256 67.5 387.5T-64 704Q-64 834 6 944T194 1109Q192 1139 192 1152Q192 1364 342 1514T704 1664Q860 1664 989.5 1577T1178 1346Q1249 1408 1344 1408Q1450 1408 1525 1333T1600 1152Q1600 1076 1559 1014Q1689 983 1772.5 878.5T1856 640z" />
    <glyph glyph-name="cloud"
      unicode="&#xE012;"
      horiz-adv-x="1792" d=" M1856 640Q1856 481 1743.5 368.5T1472 256H384Q199 256 67.5 387.5T-64 704Q-64 836 7 945.5T194 1109Q192 1137 192 1152Q192 1364 342 1514T704 1664Q862 1664 990.5 1576T1178 1346Q1248 1408 1344 1408Q1450 1408 1525 1333T1600 1152Q1600 1077 1559 1014Q1688 984 1772 879.5T1856 640z" />
    <glyph glyph-name="cog"
      unicode="&#xE013;"
      horiz-adv-x="1792" d=" M1152 896Q1152 1002 1077 1077T896 1152T715 1077T640 896T715 715T896 640T1077 715T1152 896zM1664 1005V783Q1664 771 1656 760T1636 747L1451 719Q1432 665 1412 628Q1447 578 1519 490Q1529 478 1529 465T1520 442Q1493 405 1421 334T1327 263Q1315 263 1301 272L1163 380Q1119 357 1072 342Q1056 206 1043 156Q1036 128 1007 128H785Q771 128 760.5 136.5T749 158L721 342Q672 358 631 379L490 272Q480 263 465 263Q451 263 440 274Q314 388 275 442Q268 452 268 465Q268 477 276 488Q291 509 327 554.5T381 625Q354 675 340 724L157 751Q144 753 136 763.5T128 787V1009Q128 1021 136 1032T155 1045L341 1073Q355 1119 380 1165Q340 1222 273 1303Q263 1315 263 1327Q263 1337 272 1350Q298 1386 370.5 1457.5T465 1529Q478 1529 491 1519L629 1412Q673 1435 720 1450Q736 1586 749 1636Q756 1664 785 1664H1007Q1021 1664 1031.5 1655.5T1043 1634L1071 1450Q1120 1434 1161 1413L1303 1520Q1312 1529 1327 1529Q1340 1529 1352 1519Q1481 1400 1517 1349Q1524 1341 1524 1327Q1524 1315 1516 1304Q1501 1283 1465 1237.5T1411 1167Q1437 1117 1452 1069L1635 1041Q1648 1039 1656 1028.5T1664 1005z" />
    <glyph glyph-name="comment"
      unicode="&#xE014;"
      horiz-adv-x="1792" d=" M1792 896Q1792 722 1672 574.5T1346 341.5T896 256Q826 256 751 264Q553 89 291 22Q242 8 177 0Q160 -2 146.5 9T129 38V39Q126 43 128.5 51T130.5 61T135 70.5L141 79.5L148 88L156 97Q163 105 187 131.5T221.5 169.5T252.5 209T285 260T312 319T338 395Q181 484 90.5 615T0 896Q0 1026 71 1144.5T262 1349T548 1485.5T896 1536Q1140 1536 1346 1450.5T1672 1217.5T1792 896z" />
    <glyph glyph-name="credit-card"
      unicode="&#xE015;"
      horiz-adv-x="1792" d=" M1696 1664Q1762 1664 1809 1617T1856 1504V288Q1856 222 1809 175T1696 128H96Q30 128 -17 175T-64 288V1504Q-64 1570 -17 1617T96 1664H1696zM96 1536Q83 1536 73.5 1526.5T64 1504V1280H1728V1504Q1728 1517 1718.5 1526.5T1696 1536H96zM1696 256Q1709 256 1718.5 265.5T1728 288V896H64V288Q64 275 73.5 265.5T96 256H1696zM192 384V512H448V384H192zM576 384V512H960V384H576z" />
    <glyph glyph-name="cube"
      unicode="&#xE016;"
      horiz-adv-x="1792" d=" M896 163L1536 512V1148L896 915V163zM832 1028L1530 1282L832 1536L134 1282zM1664 1280V512Q1664 477 1646 447T1597 400L893 16Q865 0 832 0T771 16L67 400Q36 417 18 447T0 512V1280Q0 1320 23 1353T84 1400L788 1656Q810 1664 832 1664T876 1656L1580 1400Q1618 1386 1641 1353T1664 1280z" />
    <glyph glyph-name="desktop"
      unicode="&#xE017;"
      horiz-adv-x="1792" d=" M1728 800V1632Q1728 1645 1718.5 1654.5T1696 1664H96Q83 1664 73.5 1654.5T64 1632V800Q64 787 73.5 777.5T96 768H1696Q1709 768 1718.5 777.5T1728 800zM1856 1632V544Q1856 478 1809 431T1696 384H1152Q1152 347 1168 306.5T1200 235.5T1216 192Q1216 166 1197 147T1152 128H640Q614 128 595 147T576 192Q576 206 592 236T624 306T640 384H96Q30 384 -17 431T-64 544V1632Q-64 1698 -17 1745T96 1792H1696Q1762 1792 1809 1745T1856 1632z" />
    <glyph glyph-name="envelope-square"
      unicode="&#xE018;"
      horiz-adv-x="1792" d=" M1376 1664Q1495 1664 1579.5 1579.5T1664 1376V416Q1664 297 1579.5 212.5T1376 128H416Q297 128 212.5 212.5T128 416V1376Q128 1495 212.5 1579.5T416 1664H1376zM1408 608V1044Q1377 1009 1344 989Q1310 967 1211.5 904T1060 805Q962 736 896 736T732 805Q686 837 590.5 897.5T448 990Q436 998 415 1017T384 1044V608Q384 568 412 540T480 512H1312Q1352 512 1380 540T1408 608zM1408 1181Q1408 1222 1380.5 1251T1312 1280H480Q440 1280 412 1252T384 1184Q384 1147 414.5 1107.5T482 1043Q529 1011 619.5 954T749 871Q752 869 766 859.5T787 845.5T808 832.5T831.5 819.5T853 810T875.5 802.5T896 800T916.5 802.5T939 810T960.5 819.5T984 832.5T1005 845.5T1026 859.5T1043 871L1310 1045Q1345 1068 1376.5 1107.5T1408 1181z" />
    <glyph glyph-name="envelope"
      unicode="&#xE019;"
      horiz-adv-x="1792" d=" M1792 1082V288Q1792 222 1745 175T1632 128H160Q94 128 47 175T0 288V1082Q44 1033 101 995Q463 749 598 650Q655 608 690.5 584.5T785 536.5T895 512H897Q948 512 1007 536.5T1101.5 584.5T1194 650Q1364 773 1692 995Q1749 1034 1792 1082zM1792 1376Q1792 1297 1743 1225T1621 1102Q1245 841 1153 777Q1143 770 1110.5 746.5T1056.5 708.5T1004.5 676T947 649T897 640H895Q872 640 845 649T787.5 676T735.5 708.5T681.5 746.5T639 777Q548 841 377 959.5T172 1102Q110 1144 55 1217.5T0 1354Q0 1432 41.5 1484T160 1536H1632Q1697 1536 1744.5 1489T1792 1376z" />
    <glyph glyph-name="exclamation-triangle"
      unicode="&#xE01A;"
      horiz-adv-x="1792" d=" M1024 417V607Q1024 621 1014.5 630.5T992 640H800Q787 640 777.5 630.5T768 607V417Q768 403 777.5 393.5T800 384H992Q1005 384 1014.5 393.5T1024 417zM1022 791L1040 1250Q1040 1262 1030 1269Q1017 1280 1006 1280H786Q775 1280 762 1269Q752 1262 752 1248L769 791Q769 781 779 774.5T803 768H988Q1002 768 1011.5 774.5T1022 791zM1008 1725L1776 317Q1811 254 1774 191Q1757 162 1727.5 145T1664 128H128Q94 128 64.5 145T18 191Q-19 254 16 317L784 1725Q801 1756 831 1774T896 1792T961 1774T1008 1725z" />
    <glyph glyph-name="file-text"
      unicode="&#xE01B;"
      horiz-adv-x="1792" d=" M1596 1316Q1610 1302 1624 1280H1152V1752Q1174 1738 1188 1724zM1120 1152H1664V96Q1664 56 1636 28T1568 0H224Q184 0 156 28T128 96V1696Q128 1736 156 1764T224 1792H1024V1248Q1024 1208 1052 1180T1120 1152zM1280 416V480Q1280 494 1271 503T1248 512H544Q530 512 521 503T512 480V416Q512 402 521 393T544 384H1248Q1262 384 1271 393T1280 416zM1280 672V736Q1280 750 1271 759T1248 768H544Q530 768 521 759T512 736V672Q512 658 521 649T544 640H1248Q1262 640 1271 649T1280 672zM1280 928V992Q1280 1006 1271 1015T1248 1024H544Q530 1024 521 1015T512 992V928Q512 914 521 905T544 896H1248Q1262 896 1271 905T1280 928z" />
    <glyph glyph-name="file"
      unicode="&#xE01C;"
      horiz-adv-x="1792" d=" M1152 1280V1752Q1174 1738 1188 1724L1596 1316Q1610 1302 1624 1280H1152zM1024 1248Q1024 1208 1052 1180T1120 1152H1664V96Q1664 56 1636 28T1568 0H224Q184 0 156 28T128 96V1696Q128 1736 156 1764T224 1792H1024V1248z" />
    <glyph glyph-name="files-o"
      unicode="&#xE01D;"
      horiz-adv-x="1792" d=" M1696 1408Q1736 1408 1764 1380T1792 1312V96Q1792 56 1764 28T1696 0H736Q696 0 668 28T640 96V384H96Q56 384 28 412T0 480V1152Q0 1192 20 1240T68 1316L476 1724Q504 1752 552 1772T640 1792H1056Q1096 1792 1124 1764T1152 1696V1368Q1220 1408 1280 1408H1696zM1152 1195L853 896H1152V1195zM512 1579L213 1280H512V1579zM708 932L1024 1248V1664H640V1248Q640 1208 612 1180T544 1152H128V512H640V768Q640 808 660 856T708 932zM1664 128V1280H1280V864Q1280 824 1252 796T1184 768H768V128H1664z" />
    <glyph glyph-name="film"
      unicode="&#xE01E;"
      horiz-adv-x="1792" d=" M320 192V320Q320 346 301 365T256 384H128Q102 384 83 365T64 320V192Q64 166 83 147T128 128H256Q282 128 301 147T320 192zM320 576V704Q320 730 301 749T256 768H128Q102 768 83 749T64 704V576Q64 550 83 531T128 512H256Q282 512 301 531T320 576zM320 960V1088Q320 1114 301 1133T256 1152H128Q102 1152 83 1133T64 1088V960Q64 934 83 915T128 896H256Q282 896 301 915T320 960zM1344 192V704Q1344 730 1325 749T1280 768H512Q486 768 467 749T448 704V192Q448 166 467 147T512 128H1280Q1306 128 1325 147T1344 192zM320 1344V1472Q320 1498 301 1517T256 1536H128Q102 1536 83 1517T64 1472V1344Q64 1318 83 1299T128 1280H256Q282 1280 301 1299T320 1344zM1728 192V320Q1728 346 1709 365T1664 384H1536Q1510 384 1491 365T1472 320V192Q1472 166 1491 147T1536 128H1664Q1690 128 1709 147T1728 192zM1344 960V1472Q1344 1498 1325 1517T1280 1536H512Q486 1536 467 1517T448 1472V960Q448 934 467 915T512 896H1280Q1306 896 1325 915T1344 960zM1728 576V704Q1728 730 1709 749T1664 768H1536Q1510 768 1491 749T1472 704V576Q1472 550 1491 531T1536 512H1664Q1690 512 1709 531T1728 576zM1728 960V1088Q1728 1114 1709 1133T1664 1152H1536Q1510 1152 1491 1133T1472 1088V960Q1472 934 1491 915T1536 896H1664Q1690 896 1709 915T1728 960zM1728 1344V1472Q1728 1498 1709 1517T1664 1536H1536Q1510 1536 1491 1517T1472 1472V1344Q1472 1318 1491 1299T1536 1280H1664Q1690 1280 1709 1299T1728 1344zM1856 1504V160Q1856 94 1809 47T1696 0H96Q30 0 -17 47T-64 160V1504Q-64 1570 -17 1617T96 1664H1696Q1762 1664 1809 1617T1856 1504z" />
    <glyph glyph-name="flag"
      unicode="&#xE01F;"
      horiz-adv-x="1792" d=" M320 1536Q320 1464 256 1426V160Q256 147 246.5 137.5T224 128H160Q147 128 137.5 137.5T128 160V1426Q64 1464 64 1536Q64 1589 101.5 1626.5T192 1664T282.5 1626.5T320 1536zM1792 1472V709Q1792 684 1779.5 670.5T1740 643Q1525 527 1371 527Q1310 527 1247.5 549T1139 597T1023.5 645T881 667Q689 667 417 521Q400 512 384 512Q358 512 339 531T320 576V1318Q320 1350 351 1373Q372 1387 430 1416Q666 1536 851 1536Q958 1536 1051 1507T1270 1419Q1308 1400 1358 1400Q1412 1400 1475.5 1421T1585.5 1468T1673.5 1515T1728 1536Q1754 1536 1773 1517T1792 1472z" />
    <glyph glyph-name="floppy-o"
      unicode="&#xE020;"
      horiz-adv-x="1792" d=" M512 256H1280V640H512V256zM1408 256H1536V1152Q1536 1166 1526 1190.5T1506 1225L1225 1506Q1215 1516 1191 1526T1152 1536V1120Q1152 1080 1124 1052T1056 1024H480Q440 1024 412 1052T384 1120V1536H256V256H384V672Q384 712 412 740T480 768H1312Q1352 768 1380 740T1408 672V256zM1024 1184V1504Q1024 1517 1014.5 1526.5T992 1536H800Q787 1536 777.5 1526.5T768 1504V1184Q768 1171 777.5 1161.5T800 1152H992Q1005 1152 1014.5 1161.5T1024 1184zM1664 1152V224Q1664 184 1636 156T1568 128H224Q184 128 156 156T128 224V1568Q128 1608 156 1636T224 1664H1152Q1192 1664 1240 1644T1316 1596L1596 1316Q1624 1288 1644 1240T1664 1152z" />
    <glyph glyph-name="folder-open"
      unicode="&#xE021;"
      horiz-adv-x="1792" d=" M1815 840Q1815 809 1784 774L1448 378Q1405 327 1327.5 291.5T1184 256H96Q62 256 35.5 269T9 312Q9 343 40 378L376 774Q419 825 496.5 860.5T640 896H1728Q1762 896 1788.5 883T1815 840zM1472 1184V1024H640Q546 1024 443 976.5T279 857L-58 461L-63 455Q-63 459 -63.5 467.5T-64 480V1440Q-64 1532 2 1598T160 1664H480Q572 1664 638 1598T704 1440V1408H1248Q1340 1408 1406 1342T1472 1184z" />
    <glyph glyph-name="folder"
      unicode="&#xE022;"
      horiz-adv-x="1792" d=" M1728 1184V480Q1728 388 1662 322T1504 256H288Q196 256 130 322T64 480V1440Q64 1532 130 1598T288 1664H608Q700 1664 766 1598T832 1440V1408H1504Q1596 1408 1662 1342T1728 1184z" />
    <glyph glyph-name="gamepad"
      unicode="&#xE023;"
      horiz-adv-x="1792" d=" M768 704V832Q768 846 759 855T736 864H544V1056Q544 1070 535 1079T512 1088H384Q370 1088 361 1079T352 1056V864H160Q146 864 137 855T128 832V704Q128 690 137 681T160 672H352V480Q352 466 361 457T384 448H512Q526 448 535 457T544 480V672H736Q750 672 759 681T768 704zM1344 640Q1344 693 1306.5 730.5T1216 768T1125.5 730.5T1088 640T1125.5 549.5T1216 512T1306.5 549.5T1344 640zM1600 896Q1600 949 1562.5 986.5T1472 1024T1381.5 986.5T1344 896T1381.5 805.5T1472 768T1562.5 805.5T1600 896zM1856 768Q1856 556 1706 406T1344 256Q1152 256 1006 384H786Q640 256 448 256Q236 256 86 406T-64 768T86 1130T448 1280H1344Q1556 1280 1706 1130T1856 768z" />
    <glyph glyph-name="gift"
      unicode="&#xE024;"
      horiz-adv-x="1792" d=" M1056 436V1152H736V436Q736 411 754 397.5T800 384H992Q1020 384 1038 397.5T1056 436zM600 1280H795L669 1441Q643 1472 600 1472Q560 1472 532 1444T504 1376T532 1308T600 1280zM1288 1376Q1288 1416 1260 1444T1192 1472Q1149 1472 1123 1441L998 1280H1192Q1232 1280 1260 1308T1288 1376zM1664 1120V800Q1664 786 1655 777T1632 768H1536V352Q1536 312 1508 284T1440 256H352Q312 256 284 284T256 352V768H160Q146 768 137 777T128 800V1120Q128 1134 137 1143T160 1152H600Q507 1152 441.5 1217.5T376 1376T441.5 1534.5T600 1600Q707 1600 768 1523L896 1358L1024 1523Q1085 1600 1192 1600Q1285 1600 1350.5 1534.5T1416 1376T1350.5 1217.5T1192 1152H1632Q1646 1152 1655 1143T1664 1120z" />
    <glyph glyph-name="heart"
      unicode="&#xE025;"
      horiz-adv-x="1792" d=" M896 128Q870 128 852 146L228 748Q218 756 200.5 774T145 839.5T77 937T23.5 1058T0 1196Q0 1416 127 1540T478 1664Q540 1664 604.5 1642.5T724.5 1584.5T820 1516T896 1448Q932 1484 972 1516T1067.5 1584.5T1187.5 1642.5T1314 1664Q1538 1664 1665 1540T1792 1196Q1792 975 1563 746L940 146Q922 128 896 128z" />
    <glyph glyph-name="home"
      unicode="&#xE026;"
      horiz-adv-x="1792" d=" M1472 800V320Q1472 294 1453 275T1408 256H1024V640H768V256H384Q358 256 339 275T320 320V800Q320 801 320.5 803T321 806L896 1280L1471 806Q1472 804 1472 800zM1695 869L1633 795Q1625 786 1612 784H1609Q1596 784 1588 791L896 1368L204 791Q192 783 180 784Q167 786 159 795L97 869Q89 879 90 892.5T101 914L820 1513Q852 1539 896 1539T972 1513L1216 1309V1504Q1216 1518 1225 1527T1248 1536H1440Q1454 1536 1463 1527T1472 1504V1096L1691 914Q1701 906 1702 892.5T1695 869z" />
    <glyph glyph-name="info-circle"
      unicode="&#xE027;"
      horiz-adv-x="1792" d=" M1152 416V576Q1152 590 1143 599T1120 608H1024V1120Q1024 1134 1015 1143T992 1152H672Q658 1152 649 1143T640 1120V960Q640 946 649 937T672 928H768V608H672Q658 608 649 599T640 576V416Q640 402 649 393T672 384H1120Q1134 384 1143 393T1152 416zM1024 1312V1472Q1024 1486 1015 1495T992 1504H800Q786 1504 777 1495T768 1472V1312Q768 1298 777 1289T800 1280H992Q1006 1280 1015 1289T1024 1312zM1664 896Q1664 687 1561 510.5T1281.5 231T896 128T510.5 231T231 510.5T128 896T231 1281.5T510.5 1561T896 1664T1281.5 1561T1561 1281.5T1664 896z" />
    <glyph glyph-name="key"
      unicode="&#xE028;"
      horiz-adv-x="1792" d=" M832 1280Q832 1360 776 1416T640 1472T504 1416T448 1280Q448 1238 467 1197Q426 1216 384 1216Q304 1216 248 1160T192 1024T248 888T384 832T520 888T576 1024Q576 1066 557 1107Q598 1088 640 1088Q720 1088 776 1144T832 1280zM1683 576Q1683 559 1634 510T1568 461Q1559 461 1539.5 477T1503 510T1464.5 550T1440 576L1344 480L1564 260Q1592 232 1592 192Q1592 150 1553 111T1472 72Q1432 72 1404 100L733 771Q557 640 368 640Q205 640 102.5 742.5T0 1008Q0 1168 95 1321T343 1569T656 1664Q819 1664 921.5 1561.5T1024 1296Q1024 1107 893 931L1248 576L1344 672Q1341 675 1318 696.5T1278 735T1245 771.5T1229 800Q1229 817 1278 866T1344 915Q1357 915 1367 905Q1373 899 1413 860.5T1495 781T1581.5 695T1654.5 617T1683 576z" />
    <glyph glyph-name="laptop"
      unicode="&#xE029;"
      horiz-adv-x="1792" d=" M352 512Q286 512 239 559T192 672V1376Q192 1442 239 1489T352 1536H1440Q1506 1536 1553 1489T1600 1376V672Q1600 606 1553 559T1440 512H352zM320 1376V672Q320 659 329.5 649.5T352 640H1440Q1453 640 1462.5 649.5T1472 672V1376Q1472 1389 1462.5 1398.5T1440 1408H352Q339 1408 329.5 1398.5T320 1376zM1696 448H1856V352Q1856 312 1809 284T1696 256H96Q30 256 -17 284T-64 352V448H1696zM976 352Q992 352 992 368T976 384H816Q800 384 800 368T816 352H976z" />
    <glyph glyph-name="life-ring"
      unicode="&#xE02A;"
      horiz-adv-x="1792" d=" M896 1792Q1078 1792 1244 1721T1530 1530T1721 1244T1792 896T1721 548T1530 262T1244 71T896 0T548 71T262 262T71 548T0 896T71 1244T262 1530T548 1721T896 1792zM896 1664Q706 1664 535 1574L729 1380Q811 1408 896 1408T1063 1380L1257 1574Q1086 1664 896 1664zM218 535L412 729Q384 811 384 896T412 1063L218 1257Q128 1086 128 896T218 535zM896 128Q1086 128 1257 218L1063 412Q981 384 896 384T729 412L535 218Q706 128 896 128zM896 512Q1055 512 1167.5 624.5T1280 896T1167.5 1167.5T896 1280T624.5 1167.5T512 896T624.5 624.5T896 512zM1380 729L1574 535Q1664 706 1664 896T1574 1257L1380 1063Q1408 981 1408 896T1380 729z" />
    <glyph glyph-name="lightbulb-o"
      unicode="&#xE02B;"
      horiz-adv-x="1792" d=" M1120 1216Q1120 1203 1110.5 1193.5T1088 1184T1065.5 1193.5T1056 1216Q1056 1262 1002 1287T896 1312Q883 1312 873.5 1321.5T864 1344T873.5 1366.5T896 1376Q946 1376 995.5 1360T1082.5 1306T1120 1216zM1280 1216Q1280 1288 1245.5 1350T1155.5 1451.5T1032.5 1513.5T896 1536T759.5 1513.5T636.5 1451.5T546.5 1350T512 1216Q512 1115 580 1036Q590 1025 610.5 1003T641 970Q769 817 782 672H1010Q1023 817 1151 970Q1161 981 1181.5 1003T1212 1036Q1280 1115 1280 1216zM1408 1216Q1408 1061 1305 948Q1260 899 1230.5 861T1171 765.5T1137 658Q1184 630 1184 576Q1184 539 1159 512Q1184 485 1184 448Q1184 396 1139 367Q1152 344 1152 320Q1152 274 1120.5 249T1043 224Q1023 180 983 154T896 128T809 154T749 224Q703 224 671.5 249T640 320Q640 344 653 367Q608 396 608 448Q608 485 633 512Q608 539 608 576Q608 630 655 658Q651 708 621 765.5T561.5 861T487 948Q384 1061 384 1216Q384 1315 428.5 1400.5T545.5 1542.5T709.5 1631.5T896 1664T1082.5 1631.5T1246.5 1542.5T1363.5 1400.5T1408 1216z" />
    <glyph glyph-name="lock"
      unicode="&#xE02C;"
      horiz-adv-x="1792" d=" M640 1024H1152V1216Q1152 1322 1077 1397T896 1472T715 1397T640 1216V1024zM1472 928V352Q1472 312 1444 284T1376 256H416Q376 256 348 284T320 352V928Q320 968 348 996T416 1024H448V1216Q448 1400 580 1532T896 1664T1212 1532T1344 1216V1024H1376Q1416 1024 1444 996T1472 928z" />
    <glyph glyph-name="logo"
      unicode="&#xE02D;"
      horiz-adv-x="7918.440433212996" d=" M917.3487364620938 1418.0736462093867C928.9935018050542 1418.0736462093867 943.2259927797834 1414.1920577617338 961.3400722021662 1414.1920577617338C972.9848375451267 1414.1920577617338 987.2173285198556 1410.3104693140808 998.862093862816 1410.3104693140808C1010.5068592057764 1410.3104693140808 1020.8577617328522 1410.3104693140808 1036.3841155234659 1414.1920577617338C1048.0288808664263 1414.1920577617338 1062.2613718411556 1418.0736462093867 1073.9061371841158 1418.0736462093867C1073.9061371841158 1429.7184115523467 1077.7877256317693 1443.950902527076 1077.7877256317693 1455.595667870036C1077.7877256317693 1467.240433212996 1077.7877256317693 1481.4729241877258 1077.7877256317693 1489.2361010830327C1077.7877256317693 1500.8808664259927 1077.7877256317693 1511.2317689530696 1077.7877256317693 1522.8765342960296C1077.7877256317693 1534.5212996389896 1073.9061371841158 1548.753790613719 1073.9061371841158 1560.398555956679C1062.2613718411556 1560.398555956679 1048.0288808664263 1564.2801444043318 1036.3841155234659 1564.2801444043318S1010.5068592057764 1568.1617328519847 998.862093862816 1568.1617328519847C987.2173285198556 1568.1617328519847 972.9848375451267 1568.1617328519847 961.3400722021662 1564.2801444043318C949.6953068592057 1564.2801444043318 931.5812274368232 1560.398555956679 917.3487364620938 1560.398555956679C917.3487364620938 1548.753790613719 913.4671480144405 1534.5212996389896 913.4671480144405 1522.8765342960296C913.4671480144405 1511.2317689530696 913.4671480144405 1496.99927797834 913.4671480144405 1489.2361010830327C913.4671480144405 1477.5913357400727 913.4671480144405 1467.240433212996 913.4671480144405 1455.595667870036C913.4671480144405 1447.832490974729 913.4671480144405 1434.8938628158842 917.3487364620938 1418.0736462093867zM850.0678700361011 1217.524909747293C850.0678700361011 1209.7617328519855 850.0678700361011 1195.529241877256 850.0678700361011 1187.7660649819504C850.0678700361011 1180.0028880866432 850.0678700361011 1165.7703971119136 850.0678700361011 1158.007220216608S853.9494584837545 1136.0115523465713 853.9494584837545 1128.2483754512655H947.1075812274368V438.6194945848404C947.1075812274368 408.8606498194979 943.2259927797834 382.9833935018085 935.4628158844764 366.1631768953094C927.6996389891696 348.0490974729269 917.3487364620938 336.4043321299669 905.7039711191334 328.6411552346599C894.0592057761731 320.8779783393527 879.826714801444 316.9963898916999 868.1819494584836 310.5270758122774C856.5371841155232 310.5270758122774 842.3046931407941 306.6454873646246 830.6599277978337 306.6454873646246C800.9010830324908 306.6454873646246 771.1422382671478 310.5270758122774 749.1465703971118 318.2902527075846C741.3833935018049 300.1761732852022 737.5018050541515 284.649819494588 731.0324909747291 262.6541516245527C727.1509025270757 240.6584837545161 727.1509025270757 225.1321299639033 723.2693140794222 203.1364620938664C760.791335740072 191.4916967509064 804.7826714801442 181.1407942238298 855.2433212996389 181.1407942238298C888.8837545126352 181.1407942238298 918.6425992779784 185.0223826714826 948.4014440433212 192.7855595667898S1004.0375451263536 214.7812274368264 1020.8577617328518 230.3075812274392C1042.853429602888 248.4216606498217 1058.3797833935016 274.2989169675111 1072.6122743682308 302.7638989169702C1084.2570397111913 332.5227436823127 1090.7263537906135 370.0447653429638 1090.7263537906135 417.9176895306885V1243.4021660649837H852.6555956678701C853.9494584837545 1238.2267148014448 853.9494584837545 1230.4635379061374 850.0678700361011 1217.524909747293zM595.1768953068591 1584.9819494584838C587.4137184115523 1584.9819494584838 573.1812274368231 1584.9819494584838 561.5364620938627 1584.9819494584838C549.8916967509025 1584.9819494584838 535.6592057761733 1581.100361010831 524.0144404332129 1581.100361010831V1244.696028880867C502.0187725631768 1248.5776173285199 480.0231046931408 1256.340794223827 456.7335740072202 1262.8101083032493C430.8563176895306 1266.6916967509023 404.9790613718411 1266.6916967509023 379.1018050541516 1266.6916967509023C323.4657039711191 1266.6916967509023 267.8296028880866 1258.9285198555951 221.2505415162455 1236.9328519855599C173.3776173285198 1214.9371841155232 135.85559566787 1189.0599277978336 102.2151624548736 1151.537906137184S42.6974729241877 1070.0245487364627 24.583393501805 1019.563898916967C6.4693140794224 967.8093862815878 -1.2938628158845 913.4671480144394 -1.2938628158845 850.0678700361003C-1.2938628158845 777.6115523465693 6.4693140794224 718.0938628158831 28.4649819494585 666.339350180504C50.4606498194946 614.5848375451249 76.3379061371841 577.0628158844754 113.8599277978339 547.3039711191316C147.5003610108303 517.5451263537893 191.4916967509025 491.6678700360997 236.7768953068592 480.0231046931383C284.6498194945848 468.3783393501783 335.1104693140794 458.0274368231017 385.571119133574 458.0274368231017C441.2072202166064 458.0274368231017 491.667870036101 461.9090252707545 539.5407942238267 469.6722021660617C587.4137184115523 477.4353790613686 628.8173285198554 487.7862815884439 662.4577617328518 499.4310469314039V1579.8064981949417C650.8129963898916 1579.8064981949417 640.4620938628158 1583.6880866425945 628.8173285198554 1583.6880866425945C621.0541516245487 1584.9819494584838 608.115523465704 1584.9819494584838 595.1768953068591 1584.9819494584838zM526.6021660649819 592.5891696750898C508.4880866425993 588.707581227437 492.9617328519855 584.8259927797826 470.9660649819495 580.9444043321298S423.0931407942238 577.062815884477 398.5097472924188 577.062815884477C320.8779783393502 577.062815884477 266.5357400722022 599.0584837545136 218.6628158844766 640.4620938628159C174.6714801444044 684.4534296028878 155.2635379061372 751.7342960288813 151.3819494584838 843.5985559566793C151.3819494584838 887.5898916967512 155.2635379061373 925.1119133574008 163.0267148014441 958.7523465703974C170.789891696751 992.3927797833942 188.9039711191337 1026.0332129963908 207.0180505415163 1051.9104693140803C225.132129963899 1077.7877256317697 251.0093862815885 1099.7833935018066 279.4743682310471 1115.3097472924194C309.23321299639 1133.4238267148016 342.8736462093863 1137.305415162456 385.5711191335741 1137.305415162456C411.4483754512636 1137.305415162456 437.3256317689532 1137.305415162456 458.0274368231047 1133.4238267148032C480.0231046931409 1129.5422382671504 502.0187725631769 1125.660649819496 521.4267148014441 1115.309747292421V591.2953068592078H525.3083032490974V592.5891696750898zM3511.5436823104687 1234.3451263537904C3477.9032490974723 1226.5819494584832 3452.0259927797824 1208.467870036101 3430.0303249097465 1196.823104693141C3404.153068592057 1218.8187725631774 3374.394223826714 1234.3451263537904 3336.8722021660647 1248.5776173285199C3303.2317689530682 1260.2223826714799 3259.240433212996 1270.5732851985567 3217.836823104693 1270.5732851985567C3166.0823104693136 1270.5732851985567 3124.6787003610107 1262.8101083032493 3085.8628158844763 1248.5776173285199C3048.3407942238264 1236.9328519855599 3013.406498194946 1214.9371841155232 2987.529241877256 1189.0599277978336C2961.6519855595666 1163.182671480144 2939.6563176895306 1133.4238267148016 2928.01155234657 1103.6649819494578C2916.36678700361 1070.0245487364614 2906.015884476534 1036.3841155234645 2906.015884476534 997.5682310469302C2906.015884476534 949.695306859204 2913.779061371841 908.2916967509016 2935.7747292418776 874.651263537905C2957.7703971119136 837.1292418772555 2983.647653429603 807.3703971119116 3013.406498194946 785.3747292418765C2987.5292418772565 763.3790613718397 2961.651985559567 737.5018050541503 2950.0072202166066 712.9184115523456C2931.893140794224 687.0411552346559 2924.129963898917 653.4007220216592 2924.129963898917 614.5848375451249C2924.129963898917 584.8259927797826 2931.893140794224 558.9487364620932 2946.125631768953 542.128519855594C2957.7703971119136 520.1328519855574 2975.884476534296 508.4880866425974 2997.880144404332 490.3740072202149C2964.239711191336 472.2599277978325 2934.4808664259926 442.5010830324886 2912.4851985559567 412.7422382671464C2890.4895306859207 379.1018050541498 2878.8447653429603 345.4613718411529 2878.8447653429603 301.4700361010812C2878.8447653429603 234.1891696750877 2904.72202166065 182.4346570397086 2960.3581227436825 147.5003610108288C3012.112635379062 113.8599277978319 3092.332129963899 99.6274368231025 3189.371841155235 99.6274368231025C3248.889530685921 99.6274368231025 3300.6440433212997 103.5090252707553 3351.104693140794 117.7415162454847C3402.859205776173 129.3862815884447 3444.2628158844764 147.5003610108272 3479.197111913357 173.3776173285166C3516.7191335740063 199.2548736462063 3542.5963898916957 225.1321299638958 3564.5920577617326 258.7725631768924C3586.5877256317685 292.4129963898893 3594.3509025270755 326.0534296028859 3594.3509025270755 370.0447653429578C3594.3509025270755 433.4440433212967 3572.3552346570395 485.1985559566758 3534.8332129963896 518.8389891696725C3497.31119133574 556.3610108303221 3432.6180505415164 574.4750902527044 3343.3415162454867 574.4750902527044L3147.968231046931 578.3566787003572C3103.9768953068588 578.3566787003572 3075.5119133574003 586.1198555956644 3062.573285198556 600.352346570394C3050.9285198555954 614.5848375451235 3044.459205776173 630.1111913357363 3044.459205776173 648.2252707581201C3044.459205776173 666.3393501805026 3052.22238267148 685.7472924187698 3066.454873646209 703.861371841152C3078.0996389891693 721.9754512635345 3092.3321299638983 733.6202166064945 3110.446209386281 741.3833935018015C3144.086642599277 733.6202166064945 3177.7270758122736 729.7386281588415 3221.718411552346 729.7386281588415C3265.7097472924183 729.7386281588415 3307.1133574007213 733.6202166064945 3344.6353790613716 747.852707581224C3382.157400722021 759.497472924184 3411.9162454873644 777.6115523465663 3442.9689530685923 803.4888086642559C3468.8462093862818 829.3660649819454 3490.8418772563177 855.2433212996349 3506.368231046931 888.8837545126316C3518.012996389891 922.5241877256282 3528.363898916967 961.3400722021626 3528.363898916967 1000.1559566786968C3528.363898916967 1026.0332129963863 3524.4823104693137 1051.910469314076 3520.6007220216597 1067.4368231046901C3516.7191335740063 1089.432490974727 3508.9559566787 1104.9588447653398 3494.7234657039703 1123.072924187722H3626.6974729241874C3626.6974729241874 1134.717689530682 3630.579061371841 1148.9501805054117 3630.579061371841 1160.5949458483717S3630.579061371841 1186.4722021660612 3630.579061371841 1194.2353790613683C3630.579061371841 1216.231046931405 3630.579061371841 1238.2267148014403 3626.6974729241874 1257.6346570397072C3578.824548736462 1252.459205776173 3541.3025270758117 1247.2837545126351 3511.5436823104687 1234.3451263537904zM3050.928519855596 416.6238267148022C3072.924187725632 442.5010830324916 3106.564620938628 454.1458483754516 3149.2620938628156 454.1458483754516L3314.8765342960287 450.2642599277988C3366.6310469314076 450.2642599277988 3400.2714801444044 442.5010830324916 3417.091696750902 424.3870036101094C3435.2057761732844 406.2729241877269 3446.850541516245 386.8649819494597 3446.850541516245 357.1061371841158C3446.850541516245 319.5841155234664 3424.854873646209 284.649819494585 3379.5696750902525 254.8909747292426C3335.5783393501806 229.0137184115531 3273.4729241877253 217.3689530685931 3195.841155234657 217.3689530685931C3169.963898916967 217.3689530685931 3144.0866425992776 217.3689530685931 3123.384837545126 221.2505415162459C3101.38916967509 225.1321299638987 3079.393501805054 229.0137184115531 3067.748736462094 239.3646209386284C3049.634657039711 247.1277978339354 3037.9898916967504 261.360288808665 3030.226714801444 273.005054151625C3022.463537906137 284.649819494585 3018.5819494584835 306.6454873646217 3018.5819494584835 328.641155234657C3017.288086642599 360.9877256317689 3030.226714801444 390.7465703971127 3050.928519855596 416.6238267148022zM3335.5783393501806 877.2389891696746C3309.7010830324907 847.4801444043322 3272.179061371841 829.3660649819484 3216.542960288809 829.3660649819484C3164.7884476534296 829.3660649819484 3123.3848375451266 847.4801444043308 3097.507581227437 877.2389891696746C3071.6303249097477 906.997833935017 3059.9855595667873 944.5198555956678 3059.9855595667873 992.3927797833928C3059.9855595667873 1040.265703971119 3071.6303249097477 1081.6693140794214 3097.507581227437 1111.4281588447652C3123.3848375451266 1141.1870036101075 3160.9068592057765 1159.3010830324913 3216.542960288809 1159.3010830324913C3268.297472924188 1159.3010830324913 3309.7010830324907 1141.187003610109 3335.5783393501806 1111.4281588447652C3361.45559566787 1081.6693140794227 3373.10036101083 1044.1472924187717 3373.10036101083 992.3927797833928C3375.6880866425986 944.5198555956678 3361.45559566787 906.9978339350184 3335.5783393501806 877.2389891696746zM1573.3371841155233 1264.1039711191343C1535.8151624548734 1264.1039711191343 1495.7054151624548 1260.2223826714812 1458.1833935018049 1256.340794223827C1420.661371841155 1252.4592057761743 1380.5516245487363 1244.696028880867 1346.9111913357399 1230.4635379061374C1346.9111913357399 1182.5906137184113 1354.6743682310466 1145.0685920577616 1376.6700361010828 1111.4281588447652C1406.4288808664257 1119.1913357400722 1436.1877256317687 1129.5422382671475 1465.9465703971118 1133.4238267148016C1495.7054151624548 1137.3054151624547 1529.3458483754512 1141.187003610109 1564.2801444043318 1141.187003610109C1619.9162454873644 1141.187003610109 1662.6137184115523 1129.542238267149 1692.372563176895 1107.5465703971122C1722.1314079422382 1085.5509025270756 1736.3638989169672 1044.1472924187733 1736.3638989169672 984.629602888087V954.8707581227446C1724.719133574007 954.8707581227446 1706.6050541516242 958.7523465703974 1684.6093862815883 958.7523465703974C1662.6137184115523 958.7523465703974 1636.7364620938624 962.6339350180504 1606.9776173285195 962.6339350180504C1562.9862815884474 962.6339350180504 1525.4642599277977 958.7523465703974 1487.9422382671478 944.5198555956678C1450.420216606498 936.7566787003608 1415.4859205776172 918.6425992779784 1385.727075812274 896.6469314079417C1355.9682310469311 874.651263537905 1333.972563176895 848.7740072202155 1318.4462093862812 815.1335740072203C1300.3321299638985 781.4931407942236 1292.5689530685918 742.6772563176894 1292.5689530685918 699.9797833935022C1292.5689530685918 655.9884476534303 1300.3321299638985 618.4664259927808 1314.5646209386277 584.825992779784C1326.2093862815882 555.0671480144417 1348.2050541516242 529.189891696752 1377.9638989169673 507.1942238267154C1403.8411552346568 485.1985559566788 1437.4815884476532 473.5537906137188 1476.2974729241873 463.2028880866435C1513.8194945848372 455.4397111913365 1557.8108303249094 451.5581227436835 1608.271480144404 451.5581227436835C1660.025992779783 451.5581227436835 1710.4866425992777 455.4397111913365 1757.0657039711189 463.2028880866435C1808.8202166064975 470.9660649819507 1846.3422382671476 481.316967509026 1879.982671480144 489.0801444043332V971.6909747292422C1879.982671480144 1073.9061371841156 1854.1054151624548 1145.0685920577616 1802.3509025270755 1192.941516245488C1744.1270758122744 1242.1083032490974 1672.9646209386283 1264.1039711191343 1573.3371841155233 1264.1039711191343zM1731.1884476534296 592.5891696750898C1713.074368231047 588.707581227437 1693.6664259927798 584.8259927797826 1667.7891696750903 580.9444043321298C1641.9119133574006 577.062815884477 1619.9162454873644 577.062815884477 1600.5083032490975 577.062815884477C1582.3942238267146 577.062815884477 1562.9862815884476 577.062815884477 1544.8722021660649 580.9444043321298C1522.876534296029 580.9444043321298 1507.350180505415 588.707581227437 1489.2361010830325 599.058483754512C1471.1220216606498 606.8216606498193 1459.4772563176896 621.0541516245489 1445.2447653429601 636.5805054151617C1431.0122743682311 652.1068592057759 1427.1306859205774 680.5718411552336 1427.1306859205774 709.0368231046925C1427.1306859205774 756.9097472924188 1445.2447653429601 790.550180505414 1475.003610108303 815.1335740072203C1504.762454873646 837.129241877257 1552.6353790613716 848.774007220217 1614.7407942238265 848.774007220217C1632.8548736462094 848.774007220217 1648.3812274368229 848.774007220217 1670.376895306859 844.8924187725642C1692.372563176895 844.8924187725642 1714.3682310469312 841.0108303249112 1726.0129963898917 841.0108303249112V595.1768953068593H1729.8945848375452V592.5891696750898zM7645.435379061371 1792H4954.20072202166C4805.406498194945 1792 4681.195667870035 1669.0830324909748 4681.195667870035 1511.231768953068V280.7682310469306C4681.195667870035 126.7985559566782 4804.1126353790605 -1.4e-12 4954.20072202166 -1.4e-12H7645.435379061371C7794.229602888085 -1.4e-12 7918.440433212997 122.9169675090238 7918.440433212997 280.7682310469306V1511.231768953068C7917.146570397111 1669.0830324909748 7795.523465703971 1792 7645.435379061371 1792zM5643.829602888086 434.7379061371846C5610.189169675089 430.8563176895316 5571.373285198555 426.9747292418774 5528.675812274368 426.9747292418774C5456.219494584837 426.9747292418774 5392.8202166064975 438.6194945848374 5337.184115523465 464.4967509025269C5281.548014440433 490.3740072202163 5234.968953068592 524.0144404332132 5197.4469314079415 566.7119133574001C5159.924909747292 610.703249097472 5134.047653429603 659.8700361010831 5112.051985559566 720.6815884476525C5093.937906137184 780.1992779783388 5082.293140794223 843.5985559566778 5082.293140794223 916.0548736462088S5090.05631768953 1051.910469314079 5112.051985559566 1111.4281588447652C5134.047653429602 1170.9458483754513 5159.924909747291 1222.7003610108304 5197.4469314079415 1269.2794223826718C5234.968953068591 1313.2707581227437 5282.841877256317 1346.9111913357403 5333.302527075812 1371.494584837545C5388.938628158844 1397.3718411552347 5448.45631768953 1409.0166064981947 5520.912635379061 1409.0166064981947C5564.903971119133 1409.0166064981947 5602.425992779783 1405.135018050542 5636.066425992779 1401.2534296028875C5669.706859205776 1397.3718411552347 5708.52274368231 1383.139350180505 5747.338628158845 1367.612996389891C5747.338628158845 1341.7357400722012 5739.575451263537 1315.8584837545118 5729.224548736462 1289.9812274368223C5721.461371841155 1264.103971119133 5711.11046931408 1238.2267148014432 5699.465703971119 1212.3494584837536C5669.706859205776 1220.112635379061 5643.829602888086 1230.463537906136 5617.952346570397 1234.3451263537904C5595.9566787003605 1238.2267148014432 5566.197833935017 1242.1083032490974 5536.438989169675 1242.1083032490974C5454.925631768952 1242.1083032490974 5392.8202166064975 1216.231046931408 5344.947292418772 1160.594945848376C5300.9559566787 1104.958844765344 5277.666425992779 1024.739350180506 5277.666425992779 913.4671480144408C5277.666425992779 699.9797833935022 5366.942960288808 590.0014440433217 5546.789891696751 590.0014440433217C5576.548736462093 590.0014440433217 5606.3075812274365 593.8830324909745 5632.184837545126 597.7646209386289C5658.062093862815 601.6462093862817 5683.939350180505 609.4093862815889 5713.698194945849 619.7602888086656C5725.342960288808 593.8830324909759 5735.693862815884 568.0057761732864 5743.457039711191 542.128519855597C5751.220216606499 516.2512635379073 5755.101805054152 490.3740072202179 5761.571119133574 464.4967509025284C5720.167509025271 450.2642599277974 5678.763898916967 438.6194945848374 5643.829602888086 434.7379061371846zM6697.03393501805 434.7379061371846C6667.275090252708 434.7379061371846 6637.516245487364 438.6194945848374 6611.6389891696745 442.5010830324916L6589.643321299639 1084.2570397111922L6402.03321299639 637.8743682310478C6390.3884476534295 637.8743682310478 6376.1559566787 633.992779783395 6364.5111913357405 633.992779783395C6352.86642599278 633.992779783395 6338.633935018051 633.992779783395 6326.98916967509 633.992779783395S6304.993501805055 633.992779783395 6293.348736462094 633.992779783395S6271.353068592058 637.8743682310478 6259.708303249097 637.8743682310478L6086.330685920578 1094.6079422382675L6068.216606498196 442.5010830324916C6042.339350180506 438.6194945848388 6012.580505415162 434.7379061371846 5986.703249097473 434.7379061371846C5960.8259927797835 434.7379061371846 5931.06714801444 438.6194945848374 5901.308303249098 442.5010830324916L5934.948736462094 1392.196389891697C5968.5891696750905 1396.07797833935 6002.229602888086 1399.9595667870042 6033.282310469314 1399.9595667870042C6066.922743682311 1399.9595667870042 6100.563176895307 1396.0779783393514 6131.615884476535 1392.196389891697L6345.103249097474 847.4801444043322L6562.4722021660655 1392.196389891697C6588.349458483755 1396.07797833935 6618.108303249099 1399.9595667870042 6651.748736462096 1399.9595667870042S6715.148014440434 1396.0779783393514 6744.906859205778 1392.196389891697L6788.89819494585 442.5010830324916C6755.257761732852 438.6194945848374 6721.617328519855 434.7379061371846 6697.03393501805 434.7379061371846zM7504.404332129963 604.2339350180512C7486.290252707581 566.7119133574017 7466.882310469314 536.9530685920579 7437.1234657039695 511.0758122743682C7407.364620938627 485.1985559566788 7369.842599277976 463.2028880866421 7325.851263537904 447.6765342960294C7281.859927797834 429.5624548736469 7232.693140794222 425.6808664259927 7171.881588447653 425.6808664259927C7142.12274368231 425.6808664259927 7116.24548736462 425.6808664259927 7094.249819494584 429.5624548736455C7072.254151624547 429.5624548736455 7050.258483754512 433.4440433212983 7030.850541516244 437.3256317689525C7008.854873646208 441.2072202166055 6993.328519855595 445.0888086642597 6971.332851985559 455.4397111913349C6949.337184115522 459.3212996389877 6933.810830324909 467.0844765342949 6907.933574007219 477.4353790613716C6911.815162454873 503.3126353790612 6915.696750902526 529.1898916967507 6919.57833935018 558.9487364620932C6927.341516245487 588.7075812274354 6937.692418772562 614.5848375451249 6945.455595667869 644.3436823104687C6979.096028880866 626.2296028880864 7012.736462093862 618.4664259927793 7047.670758122742 610.703249097472C7077.429602888084 602.9400722021649 7111.070036101081 599.058483754512 7149.885920577615 599.058483754512C7205.522021660648 599.058483754512 7248.219494584835 606.8216606498193 7277.978339350179 628.8173285198545C7307.737184115522 650.8129963898912 7325.851263537904 680.5718411552336 7325.851263537904 721.9754512635375C7325.851263537904 743.9711191335741 7321.969675090253 759.4974729241869 7314.206498194945 773.7299638989165C7306.443321299636 785.3747292418765 7296.092418772561 799.6072202166059 7284.447653429604 807.3703971119131C7272.802888086641 815.1335740072203 7258.570397111914 825.4844765342955 7246.925631768953 833.2476534296027C7235.280866425994 841.0108303249098 7217.166787003611 844.8924187725627 7199.052707581227 851.361732851985L7121.420938628158 881.1205776173274C7091.662093862816 892.7653429602874 7065.784837545126 906.997833935017 7043.789169675089 918.642599277977C7021.793501805053 930.287364620937 6999.7978339350175 948.4014440433194 6984.2714801444035 966.5155234657032C6966.157400722021 984.6296028880856 6954.512635379061 1010.506859205775 6946.749458483754 1033.7963898916964C6938.986281588446 1059.6736462093859 6935.104693140794 1093.3140794223827 6935.104693140794 1126.9545126353794C6935.104693140794 1174.8274368231055 6942.867870036101 1212.3494584837551 6957.10036101083 1245.9898916967518C6975.214440433213 1279.6303249097487 6994.62238267148 1309.389169675091 7020.499638989169 1331.3848375451275C7046.376895306859 1353.3805054151642 7080.017328519855 1375.3761732851995 7118.83321299639 1383.1393501805067C7156.35523465704 1394.7841155234667 7200.3465703971115 1401.253429602889 7250.807220216607 1401.253429602889C7294.798555956679 1401.253429602889 7336.2021660649825 1397.371841155236 7373.724187725634 1389.608664259929C7411.246209386281 1381.845487364622 7451.355956678701 1367.6129963898923 7492.759566787005 1355.9682310469323C7488.877978339352 1304.2137184115531 7474.645487364623 1253.753068592059 7448.768231046933 1207.1740072202174C7437.123465703973 1211.0555956678704 7422.890974729243 1214.9371841155248 7411.246209386283 1225.2880866425999C7399.601444043323 1229.169675090253 7385.368953068593 1233.051263537907 7367.254873646211 1236.9328519855599C7349.140794223828 1240.814440433213 7333.614440433214 1244.696028880867 7315.500361010832 1244.696028880867C7297.386281588451 1248.5776173285199 7277.978339350182 1248.5776173285199 7252.101083032493 1248.5776173285199C7240.456317689533 1248.5776173285199 7222.342238267151 1248.5776173285199 7208.109747292421 1244.696028880867C7189.995667870039 1240.8144404332143 7178.35090252708 1236.9328519855599 7164.118411552349 1233.051263537907C7152.47364620939 1225.2880866425999 7142.122743682313 1214.9371841155248 7134.359566787008 1203.2924187725648C7126.5963898917 1191.6476534296048 7122.714801444047 1173.5335740072223 7122.714801444047 1147.656317689533C7122.714801444047 1129.5422382671504 7126.5963898917 1114.015884476536 7130.477978339354 1103.664981949461C7134.359566787008 1092.020216606501 7142.122743682315 1081.669314079424 7156.355234657044 1073.9061371841185C7164.118411552351 1066.1429602888113 7178.3509025270805 1055.792057761736 7189.995667870041 1051.9104693140819C7201.6404332130005 1048.028880866429 7215.87292418773 1040.2657039711219 7227.517689530691 1033.7963898916996L7305.149458483758 1004.037545126357C7338.789891696755 992.392779783397 7368.548736462098 978.1602888086676 7394.4259927797875 960.0462093862852C7420.3032490974765 948.4014440433252 7446.180505415166 930.2873646209428 7461.70685920578 908.2916967509062C7479.820938628163 886.2960288808695 7495.347292418777 860.4187725631799 7505.698194945853 830.6599277978376C7516.049097472928 800.9010830324952 7523.812274368235 767.2606498194984 7523.812274368235 719.3877256317724C7530.281588447653 685.7472924187725 7522.518411552345 641.7559566787008 7504.404332129963 604.2339350180512zM2472.5718411552343 1264.1039711191343C2442.8129963898914 1264.1039711191343 2413.0541516245485 1260.2223826714812 2387.176895306859 1252.4592057761743C2361.2996389891696 1244.696028880867 2339.3039711191336 1230.4635379061374 2319.896028880866 1218.8187725631774C2300.4880866425992 1207.1740072202174 2282.3740072202163 1189.0599277978351 2268.1415162454873 1170.9458483754513C2250.027436823105 1152.831768953069 2238.3826714801444 1137.3054151624547 2230.6194945848374 1119.1913357400722C2230.6194945848374 1137.3054151624547 2230.6194945848374 1156.7133574007216 2226.737906137184 1182.5906137184113C2222.8563176895304 1208.467870036101 2222.8563176895304 1230.4635379061374 2218.974729241877 1242.1083032490974C2207.329963898917 1242.1083032490974 2196.979061371841 1245.9898916967504 2189.215884476534 1245.9898916967504C2181.452707581227 1245.9898916967504 2167.220216606498 1245.9898916967504 2159.457039711191 1245.9898916967504C2147.8122743682306 1245.9898916967504 2137.461371841155 1245.9898916967504 2129.6981949458477 1245.9898916967504S2107.7025270758118 1242.1083032490974 2099.939350180505 1242.1083032490974L2099.939350180505 1242.1083032490974V470.9660649819493C2111.5841155234652 470.9660649819493 2121.9350180505407 467.0844765342963 2137.4613718411547 467.0844765342963C2149.106137184115 467.0844765342963 2163.338628158844 467.0844765342963 2174.9833935018046 467.0844765342963C2186.628158844765 467.0844765342963 2196.9790613718405 467.0844765342963 2208.623826714801 467.0844765342963S2234.5010830324904 470.9660649819493 2242.264259927797 470.9660649819493V861.7126353790617C2242.264259927797 909.585559566788 2246.145848375451 950.9891696750904 2260.37833935018 984.629602888087C2272.0231046931403 1018.2700361010836 2286.2555956678693 1044.1472924187733 2308.2512635379053 1066.1429602888084C2326.365342960288 1088.1386281588452 2345.773285198555 1103.6649819494578 2371.6505415162446 1114.0158844765347C2397.527797833934 1121.7790613718416 2423.405054151624 1132.1299638989171 2449.2823104693134 1132.1299638989171C2497.155234657039 1132.1299638989171 2530.7956678700357 1114.0158844765347 2551.497472924187 1080.3754512635378C2573.493140794223 1046.7350180505414 2585.1379061371836 994.9805054151622 2585.1379061371836 922.5241877256312V472.2599277978341C2596.7826714801436 472.2599277978341 2607.1335740072195 468.3783393501812 2618.7783393501795 468.3783393501812S2644.6555956678694 468.3783393501812 2652.418772563176 468.3783393501812C2664.0635379061364 468.3783393501812 2674.414440433212 468.3783393501812 2689.940794223826 468.3783393501812C2701.5855595667863 468.3783393501812 2715.8180505415153 472.2599277978341 2727.4628158844757 472.2599277978341V962.6339350180504C2727.4628158844757 1060.9675090252708 2705.4671480144398 1136.0115523465697 2664.0635379061364 1187.766064981949C2620.072202166065 1238.2267148014448 2557.9667870036096 1264.1039711191343 2472.5718411552343 1264.1039711191343zM4316.326353790614 1150.2440433212994C4286.567509025271 1187.766064981949 4249.045487364621 1213.6433212996385 4205.0541516245485 1235.6389891696751C4161.062815884477 1257.6346570397118 4111.896028880867 1265.3978339350174 4051.084476534296 1265.3978339350174C3990.2729241877255 1265.3978339350174 3939.81227436823 1257.6346570397104 3897.114801444044 1235.6389891696751C3853.123465703972 1213.6433212996385 3815.6014440433214 1183.884476534296 3785.8425992779785 1150.2440433212994C3756.083754512635 1112.7220216606497 3734.088086642599 1068.7306859205778 3722.443321299639 1022.1516245487365C3710.798555956679 970.3971119133574 3700.447653429603 919.9364620938632 3700.447653429603 860.418772563177S3708.2108303249106 749.1465703971116 3722.443321299639 698.6859205776175C3734.088086642599 646.9314079422384 3756.083754512636 605.5277978339345 3785.8425992779785 570.5935018050545C3815.6014440433214 533.0714801444051 3853.1234657039713 507.1942238267154 3897.114801444044 485.1985559566788C3941.106137184115 463.2028880866421 3990.2729241877255 455.4397111913365 4051.084476534296 455.4397111913365C4111.896028880867 455.4397111913365 4162.356678700361 463.2028880866435 4205.0541516245485 485.1985559566788C4249.04548736462 507.1942238267154 4286.567509025271 536.9530685920579 4316.326353790614 570.5935018050545C4346.085198555957 608.115523465704 4368.080866425993 652.1068592057759 4379.725631768953 698.6859205776175C4391.370397111913 750.4404332129964 4401.721299638989 800.9010830324908 4401.721299638989 860.418772563177S4393.958122743682 971.6909747292422 4379.725631768953 1022.1516245487365C4366.787003610108 1068.7306859205778 4346.085198555956 1110.1342960288803 4316.326353790614 1150.2440433212994zM4201.172563176895 648.2252707581231C4167.532129963898 596.470758122744 4119.659205776173 570.5935018050545 4052.37833935018 570.5935018050545S3933.342960288808 596.470758122744 3903.5841155234657 648.2252707581231C3869.943682310469 699.9797833935022 3855.71119133574 767.2606498194955 3855.71119133574 857.8310469314089C3855.71119133574 947.1075812274374 3873.8252707581223 1015.6823104693156 3903.5841155234657 1067.4368231046947C3933.342960288808 1119.1913357400736 3985.097472924187 1145.0685920577632 4052.37833935018 1145.0685920577632S4171.413718411552 1119.1913357400736 4201.172563176895 1067.4368231046947C4234.812996389892 1015.6823104693156 4249.04548736462 948.4014440433222 4249.04548736462 857.8310469314089C4249.04548736462 771.1422382671484 4230.931407942238 697.3920577617325 4201.172563176895 648.2252707581231z" />
    <glyph glyph-name="map-marker"
      unicode="&#xE02E;"
      horiz-adv-x="1792" d=" M1152 1152Q1152 1258 1077 1333T896 1408T715 1333T640 1152T715 971T896 896T1077 971T1152 1152zM1408 1152Q1408 1043 1375 973L1011 199Q995 166 963.5 147T896 128T828.5 147T782 199L417 973Q384 1043 384 1152Q384 1364 534 1514T896 1664T1258 1514T1408 1152z" />
    <glyph glyph-name="minus-circle"
      unicode="&#xE02F;"
      horiz-adv-x="1792" d=" M1344 832V960Q1344 986 1325 1005T1280 1024H512Q486 1024 467 1005T448 960V832Q448 806 467 787T512 768H1280Q1306 768 1325 787T1344 832zM1664 896Q1664 687 1561 510.5T1281.5 231T896 128T510.5 231T231 510.5T128 896T231 1281.5T510.5 1561T896 1664T1281.5 1561T1561 1281.5T1664 896z" />
    <glyph glyph-name="mobile"
      unicode="&#xE030;"
      horiz-adv-x="1792" d=" M976 384Q976 417 952.5 440.5T896 464T839.5 440.5T816 384T839.5 327.5T896 304T952.5 327.5T976 384zM1184 544V1248Q1184 1261 1174.5 1270.5T1152 1280H640Q627 1280 617.5 1270.5T608 1248V544Q608 531 617.5 521.5T640 512H1152Q1165 512 1174.5 521.5T1184 544zM992 1392Q992 1408 976 1408H816Q800 1408 800 1392T816 1376H976Q992 1376 992 1392zM1280 1408V384Q1280 332 1242 294T1152 256H640Q588 256 550 294T512 384V1408Q512 1460 550 1498T640 1536H1152Q1204 1536 1242 1498T1280 1408z" />
    <glyph glyph-name="money"
      unicode="&#xE031;"
      horiz-adv-x="1792" d=" M704 640H1088V736H960V1184H846L698 1047L775 967Q817 1004 830 1024H832V736H704V640zM1216 896Q1216 826 1195 754T1135.5 620T1034 519T896 480T758 519T656.5 620T597 754T576 896T597 1038T656.5 1172T758 1273T896 1312T1034 1273T1135.5 1172T1195 1038T1216 896zM1728 640V1152Q1622 1152 1547 1227T1472 1408H320Q320 1302 245 1227T64 1152V640Q170 640 245 565T320 384H1472Q1472 490 1547 565T1728 640zM1856 1472V320Q1856 294 1837 275T1792 256H0Q-26 256 -45 275T-64 320V1472Q-64 1498 -45 1517T0 1536H1792Q1818 1536 1837 1517T1856 1472z" />
    <glyph glyph-name="music"
      unicode="&#xE032;"
      horiz-adv-x="1792" d=" M1664 1568V448Q1664 398 1630 359T1544 298.5T1440.5 266.5T1344 256T1247.5 266.5T1144 298.5T1058 359T1024 448T1058 537T1144 597.5T1247.5 629.5T1344 640Q1449 640 1536 601V1138L768 901V192Q768 142 734 103T648 42.5T544.5 10.5T448 0T351.5 10.5T248 42.5T162 103T128 192T162 281T248 341.5T351.5 373.5T448 384Q553 384 640 345V1312Q640 1343 659 1368.5T708 1404L1540 1660Q1552 1664 1568 1664Q1608 1664 1636 1636T1664 1568z" />
    <glyph glyph-name="newspaper-o"
      unicode="&#xE033;"
      horiz-adv-x="1792" d=" M896 1280H512V896H896V1280zM1024 640V512H384V640H1024zM1024 1408V768H384V1408H1024zM1664 640V512H1152V640H1664zM1664 896V768H1152V896H1664zM1664 1152V1024H1152V1152H1664zM1664 1408V1280H1152V1408H1664zM128 448V1408H0V448Q0 422 19 403T64 384T109 403T128 448zM1792 448V1536H256V448Q256 415 245 384H1728Q1754 384 1773 403T1792 448zM1920 1664V448Q1920 368 1864 312T1728 256H64Q-16 256 -72 312T-128 448V1536H128V1664H1920z" />
    <glyph glyph-name="pencil"
      unicode="&#xE034;"
      horiz-adv-x="1792" d=" M491 256L582 347L347 582L256 491V384H384V256H491zM1014 1184Q1014 1206 992 1206Q982 1206 975 1199L433 657Q426 650 426 640Q426 618 448 618Q458 618 465 625L1007 1167Q1014 1174 1014 1184zM960 1376L1376 960L544 128H128V544zM1643 1280Q1643 1227 1606 1190L1440 1024L1024 1440L1190 1605Q1226 1643 1280 1643Q1333 1643 1371 1605L1606 1371Q1643 1332 1643 1280z" />
    <glyph glyph-name="picture-o"
      unicode="&#xE035;"
      horiz-adv-x="1792" d=" M576 1216Q576 1136 520 1080T384 1024T248 1080T192 1216T248 1352T384 1408T520 1352T576 1216zM1600 832V384H192V576L512 896L672 736L1184 1248zM1696 1536H96Q83 1536 73.5 1526.5T64 1504V288Q64 275 73.5 265.5T96 256H1696Q1709 256 1718.5 265.5T1728 288V1504Q1728 1517 1718.5 1526.5T1696 1536zM1856 1504V288Q1856 222 1809 175T1696 128H96Q30 128 -17 175T-64 288V1504Q-64 1570 -17 1617T96 1664H1696Q1762 1664 1809 1617T1856 1504z" />
    <glyph glyph-name="picture"
      unicode="&#xE036;"
      horiz-adv-x="1792" d=" M576 1216Q576 1136 520 1080T384 1024T248 1080T192 1216T248 1352T384 1408T520 1352T576 1216zM1600 832V384H192V576L512 896L672 736L1184 1248zM1696 1536H96Q83 1536 73.5 1526.5T64 1504V288Q64 275 73.5 265.5T96 256H1696Q1709 256 1718.5 265.5T1728 288V1504Q1728 1517 1718.5 1526.5T1696 1536zM1856 1504V288Q1856 222 1809 175T1696 128H96Q30 128 -17 175T-64 288V1504Q-64 1570 -17 1617T96 1664H1696Q1762 1664 1809 1617T1856 1504z" />
    <glyph glyph-name="plus-circle"
      unicode="&#xE037;"
      horiz-adv-x="1792" d=" M1344 832V960Q1344 986 1325 1005T1280 1024H1024V1280Q1024 1306 1005 1325T960 1344H832Q806 1344 787 1325T768 1280V1024H512Q486 1024 467 1005T448 960V832Q448 806 467 787T512 768H768V512Q768 486 787 467T832 448H960Q986 448 1005 467T1024 512V768H1280Q1306 768 1325 787T1344 832zM1664 896Q1664 687 1561 510.5T1281.5 231T896 128T510.5 231T231 510.5T128 896T231 1281.5T510.5 1561T896 1664T1281.5 1561T1561 1281.5T1664 896z" />
    <glyph glyph-name="plus"
      unicode="&#xE038;"
      horiz-adv-x="1792" d=" M1600 1056V864Q1600 824 1572 796T1504 768H1088V352Q1088 312 1060 284T992 256H800Q760 256 732 284T704 352V768H288Q248 768 220 796T192 864V1056Q192 1096 220 1124T288 1152H704V1568Q704 1608 732 1636T800 1664H992Q1032 1664 1060 1636T1088 1568V1152H1504Q1544 1152 1572 1124T1600 1056z" />
    <glyph glyph-name="print"
      unicode="&#xE039;"
      horiz-adv-x="1792" d=" M448 256H1344V512H448V256zM448 896H1344V1280H1184Q1144 1280 1116 1308T1088 1376V1536H448V896zM1600 832Q1600 858 1581 877T1536 896T1491 877T1472 832T1491 787T1536 768T1581 787T1600 832zM1728 832V416Q1728 403 1718.5 393.5T1696 384H1472V224Q1472 184 1444 156T1376 128H416Q376 128 348 156T320 224V384H96Q83 384 73.5 393.5T64 416V832Q64 911 120.5 967.5T256 1024H320V1568Q320 1608 348 1636T416 1664H1088Q1128 1664 1176 1644T1252 1596L1404 1444Q1432 1416 1452 1368T1472 1280V1024H1536Q1615 1024 1671.5 967.5T1728 832z" />
    <glyph glyph-name="refresh"
      unicode="&#xE03A;"
      horiz-adv-x="1792" d=" M1639 736Q1639 731 1638 729Q1574 461 1370 294.5T892 128Q746 128 609.5 183T366 340L237 211Q218 192 192 192T147 211T128 256V704Q128 730 147 749T192 768H640Q666 768 685 749T704 704T685 659L548 522Q619 456 709 420T896 384Q1030 384 1146 449T1332 628Q1343 645 1385 745Q1393 768 1415 768H1607Q1620 768 1629.5 758.5T1639 736zM1664 1536V1088Q1664 1062 1645 1043T1600 1024H1152Q1126 1024 1107 1043T1088 1088T1107 1133L1245 1271Q1097 1408 896 1408Q762 1408 646 1343T460 1164Q449 1147 407 1047Q399 1024 377 1024H178Q165 1024 155.5 1033.5T146 1056V1063Q211 1331 416 1497.5T896 1664Q1042 1664 1180 1608.5T1425 1452L1555 1581Q1574 1600 1600 1600T1645 1581T1664 1536z" />
    <glyph glyph-name="remove"
      unicode="&#xE03B;"
      horiz-adv-x="1792" d=" M1191.8 897.8L1517.5 1223.6C1538.2 1244.3 1548.5 1269.4 1548.5 1298.9C1548.5 1328.5 1538.1 1353.6 1517.5 1374.2L1366.9 1525C1346.1999999999998 1545.7 1321.1 1556 1291.6 1556C1262 1556 1236.9 1545.7 1216.2 1525L890.4 1199.2L564.6 1525C543.9 1545.7 518.8 1556 489.3 1556C459.8 1556 434.6 1545.7 414 1525L263.3 1374.3C242.6 1353.6 232.3 1328.5 232.3 1299C232.3 1269.4 242.6 1244.3 263.3 1223.7L589 897.8L263.2 572C242.5 551.3 232.2 526.2 232.2 496.5999999999999C232.2 467.0999999999999 242.5 441.9000000000001 263.2 421.3000000000002L413.9 270.6000000000002C434.6 249.9000000000001 459.7 239.6000000000002 489.2 239.6000000000002C518.8 239.6000000000002 543.9 250.0000000000003 564.5 270.6000000000002L890.3 596.4000000000001L1216.1 270.6000000000002C1236.8 249.9000000000001 1261.8999999999999 239.6000000000002 1291.5 239.6000000000002C1321 239.6000000000002 1346.1999999999998 250.0000000000003 1366.7999999999997 270.6000000000002L1517.4999999999998 421.3000000000002C1538.1999999999998 442.0000000000003 1548.4999999999998 467.1000000000001 1548.4999999999998 496.6000000000001C1548.4999999999998 526.2000000000003 1538.1999999999998 551.3000000000002 1517.4999999999998 572L1191.8 897.8z" />
    <glyph glyph-name="reply"
      unicode="&#xE03C;"
      horiz-adv-x="1792" d=" M1792 672Q1792 506 1665 221Q1662 214 1654.5 197T1641 167T1628 145Q1616 128 1600 128Q1585 128 1576.5 138T1568 163Q1568 172 1570.5 189.5T1573 213Q1578 281 1578 336Q1578 437 1560.5 517T1512 655.5T1432 756.5T1326.5 826T1193.5 868.5T1039.5 890T864 896H640V640Q640 614 621 595T576 576T531 595L19 1107Q0 1126 0 1152T19 1197L531 1709Q550 1728 576 1728T621 1709T640 1664V1408H864Q1577 1408 1739 1005Q1792 871 1792 672z" />
    <glyph glyph-name="scissors"
      unicode="&#xE03D;"
      horiz-adv-x="1792" d=" M960 896Q986 896 1005 877T1024 832T1005 787T960 768T915 787T896 832T915 877T960 896zM1260 832L1767 434Q1795 414 1792 378Q1787 343 1757 327L1629 263Q1616 256 1600 256Q1583 256 1569 264L879 651L769 585Q761 581 757 580Q771 531 767 483Q760 406 711 335.5T579 212Q447 128 302 128Q166 128 80 206Q-10 290 1 413Q8 489 57 560T188 684Q320 768 466 768Q549 768 617 737Q626 750 639 759L761 832L639 905Q626 914 617 927Q549 896 466 896Q320 896 188 980Q106 1033 57 1104T1 1251Q-4 1310 16.5 1364T80 1457Q165 1536 302 1536Q447 1536 579 1452Q662 1400 711 1329T767 1181Q771 1133 757 1084Q761 1083 769 1079L879 1013L1569 1400Q1583 1408 1600 1408Q1616 1408 1629 1401L1757 1337Q1787 1321 1792 1286Q1795 1250 1767 1230zM579 1092Q625 1134 600 1200T494 1317Q402 1376 302 1376Q228 1376 189 1340Q143 1298 168 1232T274 1115Q366 1056 466 1056Q540 1056 579 1092zM494 347Q575 398 600 464T579 572Q540 608 466 608Q366 608 274 549Q193 498 168 432T189 324Q228 288 302 288Q402 288 494 347zM672 960L768 902V913Q768 949 801 969L815 977L736 1024L710 998Q707 995 700 987T688 975Q686 973 684 971.5T681 969zM896 736L992 704L1728 1280L1600 1344L832 913V800L672 704L681 696Q683 694 688 690Q692 686 699 678T710 666L736 640zM1600 320L1728 384L1208 792L1031 654Q1029 651 1018 647z" />
    <glyph glyph-name="search-plus"
      unicode="&#xE03E;"
      horiz-adv-x="1792" d=" M1088 992V928Q1088 915 1078.5 905.5T1056 896H832V672Q832 659 822.5 649.5T800 640H736Q723 640 713.5 649.5T704 672V896H480Q467 896 457.5 905.5T448 928V992Q448 1005 457.5 1014.5T480 1024H704V1248Q704 1261 713.5 1270.5T736 1280H800Q813 1280 822.5 1270.5T832 1248V1024H1056Q1069 1024 1078.5 1014.5T1088 992zM1216 960Q1216 1145 1084.5 1276.5T768 1408T451.5 1276.5T320 960T451.5 643.5T768 512T1084.5 643.5T1216 960zM1728 128Q1728 75 1690.5 37.5T1600 0Q1546 0 1510 38L1167 380Q988 256 768 256Q625 256 494.5 311.5T269.5 461.5T119.5 686.5T64 960T119.5 1233.5T269.5 1458.5T494.5 1608.5T768 1664T1041.5 1608.5T1266.5 1458.5T1416.5 1233.5T1472 960Q1472 740 1348 561L1691 218Q1728 181 1728 128z" />
    <glyph glyph-name="search"
      unicode="&#xE03F;"
      horiz-adv-x="1792" d=" M1216 960Q1216 1145 1084.5 1276.5T768 1408T451.5 1276.5T320 960T451.5 643.5T768 512T1084.5 643.5T1216 960zM1728 128Q1728 76 1690 38T1600 0Q1546 0 1510 38L1167 380Q988 256 768 256Q625 256 494.5 311.5T269.5 461.5T119.5 686.5T64 960T119.5 1233.5T269.5 1458.5T494.5 1608.5T768 1664T1041.5 1608.5T1266.5 1458.5T1416.5 1233.5T1472 960Q1472 740 1348 561L1691 218Q1728 181 1728 128z" />
    <glyph glyph-name="shopping-cart"
      unicode="&#xE040;"
      horiz-adv-x="1792" d=" M704 256Q704 204 666 166T576 128T486 166T448 256T486 346T576 384T666 346T704 256zM1600 256Q1600 204 1562 166T1472 128T1382 166T1344 256T1382 346T1472 384T1562 346T1600 256zM1728 1344V832Q1728 808 1711.5 789.5T1671 768L627 646Q640 586 640 576Q640 560 616 512H1536Q1562 512 1581 493T1600 448T1581 403T1536 384H512Q486 384 467 403T448 448Q448 459 456 479.5T472 515.5T493.5 555.5T509 585L332 1408H128Q102 1408 83 1427T64 1472T83 1517T128 1536H384Q400 1536 412.5 1529.5T432 1514T445 1489.5T453 1463.5T458.5 1434T463 1408H1664Q1690 1408 1709 1389T1728 1344z" />
    <glyph glyph-name="suitcase"
      unicode="&#xE041;"
      horiz-adv-x="1792" d=" M640 1408H1152V1536H640V1408zM288 1408V128H224Q132 128 66 194T0 352V1184Q0 1276 66 1342T224 1408H288zM1408 1408V128H384V1408H512V1568Q512 1608 540 1636T608 1664H1184Q1224 1664 1252 1636T1280 1568V1408H1408zM1792 1184V352Q1792 260 1726 194T1568 128H1504V1408H1568Q1660 1408 1726 1342T1792 1184z" />
    <glyph glyph-name="tag"
      unicode="&#xE042;"
      horiz-adv-x="1792" d=" M576 1344Q576 1397 538.5 1434.5T448 1472T357.5 1434.5T320 1344T357.5 1253.5T448 1216T538.5 1253.5T576 1344zM1643 768Q1643 715 1606 678L1115 186Q1076 149 1024 149Q971 149 934 186L219 902Q181 939 154.5 1003T128 1120V1536Q128 1588 166 1626T256 1664H672Q725 1664 789 1637.5T891 1573L1606 859Q1643 820 1643 768z" />
    <glyph glyph-name="ticket"
      unicode="&#xE043;"
      horiz-adv-x="1792" d=" M1024 1340L1340 1024L768 452L452 768zM813 361L1431 979Q1450 998 1450 1024T1431 1069L1069 1431Q1051 1449 1024 1449T979 1431L361 813Q342 794 342 768T361 723L723 361Q741 343 768 343T813 361zM1702 998L795 90Q758 53 704.5 53T614 90L488 216Q544 272 544 352T488 488T352 544T216 488L91 614Q54 651 54 704.5T91 795L998 1701Q1035 1738 1088.5 1738T1179 1701L1304 1576Q1248 1520 1248 1440T1304 1304T1440 1248T1576 1304L1702 1179Q1739 1142 1739 1088.5T1702 998z" />
    <glyph glyph-name="trash-o"
      unicode="&#xE044;"
      horiz-adv-x="1792" d=" M704 1056V480Q704 466 695 457T672 448H608Q594 448 585 457T576 480V1056Q576 1070 585 1079T608 1088H672Q686 1088 695 1079T704 1056zM960 1056V480Q960 466 951 457T928 448H864Q850 448 841 457T832 480V1056Q832 1070 841 1079T864 1088H928Q942 1088 951 1079T960 1056zM1216 1056V480Q1216 466 1207 457T1184 448H1120Q1106 448 1097 457T1088 480V1056Q1088 1070 1097 1079T1120 1088H1184Q1198 1088 1207 1079T1216 1056zM1344 332V1280H448V332Q448 310 455 291.5T469.5 264.5T480 256H1312Q1315 256 1322.5 264.5T1337 291.5T1344 332zM672 1408H1120L1072 1525Q1065 1534 1055 1536H738Q728 1534 721 1525zM1600 1376V1312Q1600 1298 1591 1289T1568 1280H1472V332Q1472 249 1425 188.5T1312 128H480Q414 128 367 186.5T320 328V1280H224Q210 1280 201 1289T192 1312V1376Q192 1390 201 1399T224 1408H533L603 1575Q618 1612 657 1638T736 1664H1056Q1096 1664 1135 1638T1189 1575L1259 1408H1568Q1582 1408 1591 1399T1600 1376z" />
    <glyph glyph-name="trash"
      unicode="&#xE045;"
      horiz-adv-x="1792" d=" M704 416V1120Q704 1134 695 1143T672 1152H608Q594 1152 585 1143T576 1120V416Q576 402 585 393T608 384H672Q686 384 695 393T704 416zM960 416V1120Q960 1134 951 1143T928 1152H864Q850 1152 841 1143T832 1120V416Q832 402 841 393T864 384H928Q942 384 951 393T960 416zM1216 416V1120Q1216 1134 1207 1143T1184 1152H1120Q1106 1152 1097 1143T1088 1120V416Q1088 402 1097 393T1120 384H1184Q1198 384 1207 393T1216 416zM672 1408H1120L1072 1525Q1065 1534 1055 1536H738Q728 1534 721 1525zM1600 1376V1312Q1600 1298 1591 1289T1568 1280H1472V332Q1472 249 1425 188.5T1312 128H480Q414 128 367 186.5T320 328V1280H224Q210 1280 201 1289T192 1312V1376Q192 1390 201 1399T224 1408H533L603 1575Q618 1612 657 1638T736 1664H1056Q1096 1664 1135 1638T1189 1575L1259 1408H1568Q1582 1408 1591 1399T1600 1376z" />
    <glyph glyph-name="unlock-alt"
      unicode="&#xE046;"
      horiz-adv-x="1792" d=" M1376 1024Q1416 1024 1444 996T1472 928V352Q1472 312 1444 284T1376 256H416Q376 256 348 284T320 352V928Q320 968 348 996T416 1024H448V1344Q448 1529 579.5 1660.5T896 1792T1212.5 1660.5T1344 1344Q1344 1318 1325 1299T1280 1280H1216Q1190 1280 1171 1299T1152 1344Q1152 1450 1077 1525T896 1600T715 1525T640 1344V1024H1376z" />
    <glyph glyph-name="upload"
      unicode="&#xE047;"
      horiz-adv-x="1792" d=" M1344 320Q1344 346 1325 365T1280 384T1235 365T1216 320T1235 275T1280 256T1325 275T1344 320zM1600 320Q1600 346 1581 365T1536 384T1491 365T1472 320T1491 275T1536 256T1581 275T1600 320zM1728 544V224Q1728 184 1700 156T1632 128H160Q120 128 92 156T64 224V544Q64 584 92 612T160 640H587Q608 584 657.5 548T768 512H1024Q1085 512 1134.5 548T1205 640H1632Q1672 640 1700 612T1728 544zM1403 1192Q1386 1152 1344 1152H1088V704Q1088 678 1069 659T1024 640H768Q742 640 723 659T704 704V1152H448Q406 1152 389 1192Q372 1231 403 1261L851 1709Q869 1728 896 1728T941 1709L1389 1261Q1420 1231 1403 1192z" />
    <glyph glyph-name="user"
      unicode="&#xE048;"
      horiz-adv-x="1792" d=" M1600 387Q1600 267 1527 197.5T1333 128H459Q338 128 265 197.5T192 387Q192 440 195.5 490.5T209.5 599.5T236 708T279 805.5T341 886.5T426.5 940T538 960Q547 960 580 938.5T654.5 890.5T762.5 842.5T896 821T1029.5 842.5T1137.5 890.5T1212 938.5T1254 960Q1315 960 1365.5 940T1451 886.5T1513 805.5T1556 708T1582.5 599.5T1596.5 490.5T1600 387zM1280 1280Q1280 1121 1167.5 1008.5T896 896T624.5 1008.5T512 1280T624.5 1551.5T896 1664T1167.5 1551.5T1280 1280z" />
    <glyph glyph-name="volume-up"
      unicode="&#xE049;"
      horiz-adv-x="1792" d=" M832 1440V352Q832 326 813 307T768 288T723 307L390 640H128Q102 640 83 659T64 704V1088Q64 1114 83 1133T128 1152H390L723 1485Q742 1504 768 1504T813 1485T832 1440zM1216 896Q1216 820 1173.5 754.5T1061 661Q1051 656 1036 656Q1010 656 991 674.5T972 720Q972 741 984 755.5T1013 780.5T1047 803.5T1076 839T1088 896T1076 953T1047 988.5T1013 1011.5T984 1036.5T972 1072Q972 1099 991 1117.5T1036 1136Q1051 1136 1061 1131Q1131 1104 1173.5 1038T1216 896zM1472 896Q1472 743 1387 613.5T1162 425Q1149 420 1137 420Q1110 420 1091 439T1072 484Q1072 523 1111 543Q1167 572 1187 587Q1261 641 1302.5 722.5T1344 896T1302.5 1069.5T1187 1205Q1167 1220 1111 1249Q1072 1269 1072 1308Q1072 1334 1091 1353T1136 1372Q1149 1372 1162 1367Q1302 1308 1387 1178.5T1472 896zM1728 896Q1728 666 1601 473.5T1263 190Q1250 185 1237 185Q1211 185 1192 204T1173 249Q1173 285 1212 308Q1219 312 1234.5 318.5T1257 329Q1303 354 1339 380Q1462 471 1531 607T1600 896T1531 1185T1339 1412Q1303 1438 1257 1463Q1250 1467 1234.5 1473.5T1212 1484Q1173 1507 1173 1543Q1173 1569 1192 1588T1237 1607Q1250 1607 1263 1602Q1474 1511 1601 1318.5T1728 896z" />
    <glyph glyph-name="wrench"
      unicode="&#xE04A;"
      horiz-adv-x="1792" d=" M448 320Q448 346 429 365T384 384T339 365T320 320T339 275T384 256T429 275T448 320zM1092 740L410 58Q373 21 320 21Q268 21 229 58L123 166Q85 202 85 256Q85 309 123 347L804 1028Q843 930 918.5 854.5T1092 740zM1726 1175Q1726 1136 1703 1069Q1656 935 1538.5 851.5T1280 768Q1095 768 963.5 899.5T832 1216T963.5 1532.5T1280 1664Q1338 1664 1401.5 1647.5T1509 1601Q1525 1590 1525 1573T1509 1545L1216 1376V1152L1409 1045Q1414 1048 1488 1093.5T1623.5 1174.5T1694 1210Q1709 1210 1717.5 1200T1726 1175z" />
  </font>
</defs>
</svg>
